<?xml version="1.0" encoding="UTF-8" standalone="no"?><!DOCTYPE svg PUBLIC "-//W3C//DTD SVG 1.1//EN" "http://www.w3.org/Graphics/SVG/1.1/DTD/svg11.dtd"><svg width="100%" height="100%" viewBox="0 0 297 93" version="1.1" xmlns="http://www.w3.org/2000/svg" xmlns:xlink="http://www.w3.org/1999/xlink" xml:space="preserve" xmlns:serif="http://www.serif.com/" style="fill-rule:evenodd;clip-rule:evenodd;stroke-miterlimit:1.5;"><g><rect x="-0" y="0" width="296.745" height="92.373" style="fill:#fff;"/><g><path d="M42.171,40.191l-5.995,0" style="fill:none;stroke:#000;stroke-width:1px;"/><path d="M36.176,34.196l0,6.648" style="fill:none;stroke:#000;stroke-width:1px;"/><path d="M48.166,46.186l-6.231,0" style="fill:none;stroke:#000;stroke-width:1px;"/><path d="M42.171,40.191l0,5.995" style="fill:none;stroke:#000;stroke-width:1px;"/><circle cx="42.171" cy="28.201" r="2.497" style="fill:#a792ff;"/><rect x="27.681" y="25.701" width="5" height="5" style="fill:#1b1340;"/><circle cx="54.161" cy="28.201" r="2.497" style="fill:#e2dbff;"/><circle cx="48.166" cy="28.201" r="2.497" style="fill:#e2dbff;"/><circle cx="48.166" cy="58.176" r="2.497" style="fill:#e2dbff;"/><circle cx="48.166" cy="34.196" r="2.497" style="fill:#a792ff;"/><circle cx="48.166" cy="52.181" r="2.497" style="fill:#e2dbff;"/><circle cx="48.166" cy="64.171" r="2.497" style="fill:#e2dbff;"/><circle cx="30.181" cy="40.191" r="2.497" style="fill:#6d4aff;"/><circle cx="42.171" cy="40.191" r="2.75" style="fill:#1b1340;"/><circle cx="60.156" cy="40.191" r="2.497" style="fill:#e2dbff;"/><circle cx="36.176" cy="40.191" r="2.75" style="fill:#382580;"/><circle cx="66.151" cy="40.191" r="2.497" style="fill:#e2dbff;"/><circle cx="42.171" cy="58.176" r="2.497" style="fill:#e2dbff;"/><circle cx="60.156" cy="58.176" r="2.497" style="fill:#a792ff;"/><circle cx="36.176" cy="58.176" r="2.497" style="fill:#e2dbff;"/><circle cx="54.161" cy="58.176" r="2.497" style="fill:#e2dbff;"/><circle cx="42.171" cy="34.196" r="2.497" style="fill:#6d4aff;"/><circle cx="60.156" cy="34.196" r="2.497" style="fill:#e2dbff;"/><circle cx="36.176" cy="34.196" r="2.75" style="fill:#382580;"/><circle cx="54.161" cy="34.196" r="2.497" style="fill:#e2dbff;"/><circle cx="30.181" cy="52.181" r="2.497" style="fill:#e2dbff;"/><circle cx="42.171" cy="52.181" r="2.497" style="fill:#a792ff;"/><circle cx="60.156" cy="52.181" r="2.497" style="fill:#e2dbff;"/><circle cx="36.176" cy="52.181" r="2.497" style="fill:#a792ff;"/><circle cx="54.161" cy="52.181" r="2.497" style="fill:#e2dbff;"/><circle cx="66.151" cy="52.181" r="2.497" style="fill:#e2dbff;"/><circle cx="30.181" cy="46.186" r="2.497" style="fill:#a792ff;"/><circle cx="42.171" cy="46.186" r="2.497" style="fill:#6d4aff;"/><circle cx="60.156" cy="46.186" r="2.497" style="fill:#e2dbff;"/><circle cx="36.176" cy="46.186" r="2.497" style="fill:#6d4aff;"/><circle cx="66.151" cy="46.186" r="2.497" style="fill:#e2dbff;"/><circle cx="42.171" cy="64.171" r="2.497" style="fill:#e2dbff;"/><circle cx="54.161" cy="64.171" r="2.497" style="fill:#a792ff;"/><circle cx="66.151" cy="64.171" r="2.497" style="fill:#1b1340;"/><path d="M30.181,61.646l2.525,5.05l-5.049,-0l2.524,-5.05Z" style="fill:#1b1340;"/><path d="M66.151,25.701l2.165,1.25l0,2.5l-2.165,1.25l-2.165,-1.25l-0,-2.5l2.165,-1.25Z" style="fill:#1b1340;"/><circle cx="48.166" cy="40.191" r="2.5" style="fill:#6d4aff;"/><circle cx="48.166" cy="46.186" r="2.5" style="fill:#a792ff;"/><circle cx="54.161" cy="40.191" r="2.5" style="fill:#a792ff;"/><circle cx="54.161" cy="46.186" r="2.5" style="fill:#e2dbff;"/></g><g transform="matrix(0.322866,0,0,0.322866,-0.526962,-196.61)"><text x="291.302px" y="791.084px" style="font-family:'HelveticaNeue', 'Helvetica Neue';font-size:111.501px;fill:#1b1340;">Enrich</text><g transform="matrix(111.501,0,0,111.501,838.438,791.084)"></g><text x="605.177px" y="791.084px" style="font-family:'HelveticaNeue-Bold', 'Helvetica Neue';font-weight:700;font-size:111.501px;fill:#1b1340;">Map</text></g></g></svg>