<?xml version="1.0" encoding="UTF-8" standalone="no"?><!DOCTYPE svg PUBLIC "-//W3C//DTD SVG 1.1//EN" "http://www.w3.org/Graphics/SVG/1.1/DTD/svg11.dtd"><svg width="100%" height="100%" viewBox="0 0 297 93" version="1.1" xmlns="http://www.w3.org/2000/svg" xmlns:xlink="http://www.w3.org/1999/xlink" xml:space="preserve" xmlns:serif="http://www.serif.com/" style="fill-rule:evenodd;clip-rule:evenodd;stroke-miterlimit:1.5;"><g><g><path d="M42.171,40.191l-5.995,0" style="fill:none;stroke:#fff;stroke-width:1px;"/><path d="M36.176,34.196l0,6.648" style="fill:none;stroke:#fff;stroke-width:1px;"/><path d="M48.166,46.186l-6.231,0" style="fill:none;stroke:#fff;stroke-width:1px;"/><path d="M42.171,40.191l0,5.995" style="fill:none;stroke:#fff;stroke-width:1px;"/><circle cx="42.171" cy="28.201" r="2.497" style="fill:#c2b3ff;"/><rect x="27.681" y="25.701" width="5" height="5" style="fill:#fff;"/><circle cx="54.161" cy="28.201" r="2.497" style="fill:#e2dbff;"/><circle cx="48.166" cy="28.201" r="2.497" style="fill:#e2dbff;"/><circle cx="48.166" cy="58.176" r="2.497" style="fill:#e2dbff;"/><circle cx="48.166" cy="34.196" r="2.497" style="fill:#c2b3ff;"/><circle cx="48.166" cy="52.181" r="2.497" style="fill:#e2dbff;"/><circle cx="48.166" cy="64.171" r="2.497" style="fill:#e2dbff;"/><circle cx="30.181" cy="40.191" r="2.497" style="fill:#b49aff;"/><circle cx="42.171" cy="40.191" r="2.75" style="fill:#fff;"/><circle cx="60.156" cy="40.191" r="2.497" style="fill:#e2dbff;"/><circle cx="36.176" cy="40.191" r="2.75" style="fill:#d1c7ff;"/><circle cx="66.151" cy="40.191" r="2.497" style="fill:#e2dbff;"/><circle cx="42.171" cy="58.176" r="2.497" style="fill:#e2dbff;"/><circle cx="60.156" cy="58.176" r="2.497" style="fill:#c2b3ff;"/><circle cx="36.176" cy="58.176" r="2.497" style="fill:#e2dbff;"/><circle cx="54.161" cy="58.176" r="2.497" style="fill:#e2dbff;"/><circle cx="42.171" cy="34.196" r="2.497" style="fill:#b49aff;"/><circle cx="60.156" cy="34.196" r="2.497" style="fill:#e2dbff;"/><circle cx="36.176" cy="34.196" r="2.75" style="fill:#d1c7ff;"/><circle cx="54.161" cy="34.196" r="2.497" style="fill:#e2dbff;"/><circle cx="30.181" cy="52.181" r="2.497" style="fill:#e2dbff;"/><circle cx="42.171" cy="52.181" r="2.497" style="fill:#c2b3ff;"/><circle cx="60.156" cy="52.181" r="2.497" style="fill:#e2dbff;"/><circle cx="36.176" cy="52.181" r="2.497" style="fill:#c2b3ff;"/><circle cx="54.161" cy="52.181" r="2.497" style="fill:#e2dbff;"/><circle cx="66.151" cy="52.181" r="2.497" style="fill:#e2dbff;"/><circle cx="30.181" cy="46.186" r="2.497" style="fill:#c2b3ff;"/><circle cx="42.171" cy="46.186" r="2.497" style="fill:#b49aff;"/><circle cx="60.156" cy="46.186" r="2.497" style="fill:#e2dbff;"/><circle cx="36.176" cy="46.186" r="2.497" style="fill:#b49aff;"/><circle cx="66.151" cy="46.186" r="2.497" style="fill:#e2dbff;"/><circle cx="42.171" cy="64.171" r="2.497" style="fill:#e2dbff;"/><circle cx="54.161" cy="64.171" r="2.497" style="fill:#c2b3ff;"/><circle cx="66.151" cy="64.171" r="2.497" style="fill:#fff;"/><path d="M30.181,61.646l2.525,5.05l-5.049,0l2.524,-5.05Z" style="fill:#fff;"/><path d="M66.151,25.701l2.165,1.25l0,2.5l-2.165,1.25l-2.165,-1.25l0,-2.5l2.165,-1.25Z" style="fill:#fff;"/><circle cx="48.166" cy="40.191" r="2.5" style="fill:#b49aff;"/><circle cx="48.166" cy="46.186" r="2.5" style="fill:#c2b3ff;"/><circle cx="54.161" cy="40.191" r="2.5" style="fill:#c2b3ff;"/><circle cx="54.161" cy="46.186" r="2.5" style="fill:#e2dbff;"/></g><g><text x="93.525px" y="58.804px" style="font-family:'HelveticaNeue', 'Helvetica Neue';font-size:36px;fill:#fff;">Enrich</text><text x="194.864px" y="58.804px" style="font-family:'HelveticaNeue-Bold', 'Helvetica Neue';font-weight:700;font-size:36px;fill:#fff;">Map</text></g></g></svg>